# xmcd
#
# Track frame offsets: 
#        150
#        18487
#        37369
#        54068
#        73237
#        92396
#        105313
#        118233
#
# Disc length: 1846 seconds
#
# Revision: 0
# Processed by: cddbd v1.5.2PL0 Copyright (c) Steve Scherf et al.
# Submitted via: ExactAudioCopyFreeDBPlugin 1.0
#
DISCID=65073408
DTITLE=Nissan Fortz - Day by Day
DYEAR=2016
DGENRE=Blues
TTITLE0=Cantikku
TTITLE1=Rindu Bilang Rindu
TTITLE2=It's OK
TTITLE3=Berjalan Semestinya
TTITLE4=Sore Sebelum Hujan
TTITLE5=Way Out Song
TTITLE6=Way Out Song (Electric Drum Version)
TTITLE7=0
EXTD=
EXTT0=
EXTT1=
EXTT2=
EXTT3=
EXTT4=
EXTT5=
EXTT6=
EXTT7=
PLAYORDER=
